<svg width="66" height="98" viewBox="0 0 66 98" fill="none" xmlns="http://www.w3.org/2000/svg">
<path d="M32.8573 1.85715C15.5061 1.85715 1.42871 15.7718 1.42871 32.9095C1.42871 52.6289 22.3811 83.8785 30.0745 94.672C30.3939 95.1276 30.8125 95.4984 31.2961 95.754C31.7797 96.0096 32.3146 96.1429 32.8573 96.1429C33.3999 96.1429 33.9349 96.0096 34.4185 95.754C34.9021 95.4984 35.3207 95.1276 35.64 94.672C43.3335 83.883 64.2859 52.6448 64.2859 32.9095C64.2859 15.7718 50.2085 1.85715 32.8573 1.85715Z" stroke="#ED3D3F" stroke-width="2" stroke-linecap="round" stroke-linejoin="round"/>
<path d="M32.8571 49C39.8001 49 45.4285 43.3716 45.4285 36.4286C45.4285 29.4856 39.8001 23.8571 32.8571 23.8571C25.9141 23.8571 20.2856 29.4856 20.2856 36.4286C20.2856 43.3716 25.9141 49 32.8571 49Z" stroke="#ED3D3F" stroke-width="2" stroke-linecap="round" stroke-linejoin="round"/>
</svg>
